{"title":"Masters of Sex S04E01 Freefall 720p AMZN WEBRip HEVC 2CH x265","uid":15737937,"size":453859208,"categoryP":"video","categoryS":"hd___tv_shows","magnet":"?xt=urn:btih:1df4445cf87206cb417886440a2eb398f7920ffb&amp;dn=Masters+of+Sex+S04E01+Freefall+720p+AMZN+WEBRip+HEVC+2CH+x265&amp;tr=udp%3A%2F%2Ftracker.leechers-paradise.org%3A6969&amp;tr=udp%3A%2F%2Fzer0day.ch%3A1337&amp;tr=udp%3A%2F%2Fopen.demonii.com%3A1337&amp;tr=udp%3A%2F%2Ftracker.coppersurfer.tk%3A6969&amp;tr=udp%3A%2F%2Fexodus.desync.com%3A6969","seeders":1,"leechers":1,"uploader":"nayhtut","files":1,"time":1472861465,"description":"[Screenshots]\r\n \nhttps://s10.postimg.org/6fbgxcwkp/Masters_of_Sex_S04_E01_Freefall_720p_AMZN_WEBRip.jpg \nhttps://s10.postimg.org/h3f7w76jt/Masters_of_Sex_S04_E01_Freefall_720p_AMZN_WEBRip.jpg\r\n\r\n\r\nSource:  Masters of Sex S04E01 Freefall 1080p AMZN WEBRip DD5 1 x264-CasStudio (4.47 GB)\r\n \r\n__--__--__--__--__--__--__--__--__--__--__--__--__--\r\n\r\n\r\nComplete name                            : Masters.of.Sex.S04E01.Freefall.720p.AMZN.WEBRip.HEVC.2CH.x265.mkv\r\nFormat                                   : Matroska\r\nFormat version                           : Version 4 / Version 2\r\nFile size                                : 433 MiB\r\nDuration                                 : 57mn 56s\r\nOverall bit rate                         : 1 045 Kbps\r\nWriting application                      : Lavf57.25.100\r\nWriting library                          : Lavf57.25.100\r\n\r\nVideo\r\n\r\nID                                       : 1\r\nFormat                                   : V_MPEGH/ISO/HEVC\r\nCodec ID                                 : V_MPEGH/ISO/HEVC\r\nDuration                                 : 57mn 56s\r\nBit rate                                 : 832 Kbps\r\nWidth                                    : 1 274 pixels\r\nHeight                                   : 720 pixels\r\nDisplay aspect ratio                     : 16:9\r\nFrame rate                               : 25.000 fps\r\nBits/(Pixel*Frame)                       : 0.036\r\nStream size                              : 345 MiB (80%)\r\nWriting library                          : Lavc57.48.101 libx265\r\nLanguage                                 : English\r\nDefault                                  : Yes\r\nForced                                   : No\r\nDURATION                                 : 00:57:56.171000000\r\n\r\n\r\nAudio\r\nID                                       : 2\r\nFormat                                   : AC-3\r\nFormat/Info                              : Audio Coding 3\r\nMode extension                           : CM (complete main)\r\nFormat settings, Endianness              : Big\r\nCodec ID                                 : A_AC3\r\nDuration                                 : 57mn 56s\r\nBit rate mode                            : Constant\r\nBit rate                                 : 192 Kbps\r\nChannel(s)                               : 2 channels\r\nChannel positions                        : Front: L R\r\nSampling rate                            : 48.0 KHz\r\nBit depth                                : 16 bits\r\nCompression mode                         : Lossy\r\nStream size                              : 79.6 MiB (18%)\r\nWriting library                          : Lavc57.24.102 ac3\r\nLanguage                                 : English\r\nDefault                                  : Yes\r\nForced                                   : No\r\n\r\nText\r\n\r\nID                                       : 3\r\nFormat                                   : ASS\r\nCodec ID                                 : S_TEXT/ASS\r\nCodec ID/Info                            : Advanced Sub Station Alpha\r\nCompression mode                         : Lossless\r\nWriting library                          : Lavc57.48.101 ssa\r\nLanguage                                 : English\r\nDefault                                  : No\r\nForced                                   : No\r\nDURATION                                 : 00:56:49.791000000","torrent":{"xt":"urn:btih:1df4445cf87206cb417886440a2eb398f7920ffb","amp;dn":"Masters+of+Sex+S04E01+Freefall+720p+AMZN+WEBRip+HEVC+2CH+x265","amp;tr":["udp%3A%2F%2Ftracker.leechers-paradise.org%3A6969","udp%3A%2F%2Fzer0day.ch%3A1337","udp%3A%2F%2Fopen.demonii.com%3A1337","udp%3A%2F%2Ftracker.coppersurfer.tk%3A6969","udp%3A%2F%2Fexodus.desync.com%3A6969"],"infoHash":"1df4445cf87206cb417886440a2eb398f7920ffb","infoHashBuffer":{"type":"Buffer","data":[29,244,68,92,248,114,6,203,65,120,134,68,10,46,179,152,247,146,15,251]},"announce":[],"urlList":[]}}